<?xml version="1.0"?><svg id="all_fusee" viewBox="-100 -200 200 210" xmlns="http://www.w3.org/2000/svg" version="1.1" xmlns:xlink="http://www.w3.org/1999/xlink">
	<title>Fusée qui décole</title>
	<style>
		.f_corps, .f_pates {
			fill:#DAD2D2;
			stroke:#DAD2D2;
		}
		.hublo{
			fill:firebrick;
			stroke:none;
		}
		.f_tuyere{
			stroke:none;
			fill:black;
		}
		
		#gaz_s2{
			fill: darkgrey;
			animation: 3s gaz_s_anim ease-in infinite;
		}
		#gaz_s1{
			fill: darkgrey;
			animation: 3s gaz_s_anim linear infinite ;
		}
		@keyframes gaz_s_anim {
			from,to, 15%{fill-opacity:0;}
			99%			{fill-opacity:0.6;}
		}
		
		#gaz_p2{
			stroke:none;
			animation: 3s gaz_p2_anim ease-in-out infinite ;
		}
		@keyframes gaz_p2_anim {
			from,to, 10%	{fill:rgba(21,26,26,0);}
			50%				{fill:darkorange;}
			99%				{fill:gold;}
		}
		
		#gaz_p1{
			stroke:none;
			animation: 3s gaz_p1_anim ease infinite ;
		}
		@keyframes gaz_p1_anim {
			from, 5%,to	{fill:rgba(31,36,36,0);}
			50%			{fill:maroon;}
			99%			{fill:orangered;}
		}
		
	</style>
	
	<g id="fusee">
		
		<path class="f_corps" d="M-10,-20 h20 v-50 C10,-85 -10,-85 -10,-70 z" />
		<path class="f_pates" d="M10,-40   C 30,-20 30,-10 20,0   C 15,-10 30,-10 10,-20   z" />
		<path class="f_pates" d="M-10,-40   C -30,-20 -30,-10 -20,0   C -15,-10 -30,-10 -10,-20   z" />
		<path class="f_tuyere" d="M0,-20 l7,10 h-14 z"/>
		
		<circle class="hublo" r="3" cx="0" cy="-40" />
		<circle class="hublo" r="3" cx="0" cy="-50" />
		<circle class="hublo" r="3" cx="0" cy="-60" />
		
		<path id="gaz_s2"
		d="M0,-10 h-5  C-30,5 -10,20 -20,40 T-50,50 T-60,30 T-90,30 T-90,90 T-40,90 T0,80 T50,90 T80,60 T90,30 T60,30 T7,-10 z" />
		
		<path id="gaz_s1"
		d="M0,-10 h-5   C-30,5 -30,20 -30,40   C-30,40 -40,40 -50,70   C-45,100 -40,90 -10,100  T20,90  T40,70   
		T70,50  T80,30  T50,10 T30,10 T10,0
		l-3,-10 z"/>
		
		<path id="gaz_p2" d="M-7,-10  L-6,0  L-5,-2  L-4,5  L-3,7  L-2,5  L-1,8  L0,10  L1,15  L2,10  L3,12  L4,3  L5,5 L6,-7  L7,-10 z" />
		<path id="gaz_p1" d="M-5,-10  L-4,-4  L-2,-6  L-1,-1  L1,0  L2,-2  L3,-8  L5,-10  z"/>
		
		<animateMotion dur="3s" repeatCount="indefinite" path="M0,0 v-30 l5,-20 v-50 l-7,-50 v-50 l10,-100 " />
	</g>
	
</svg>
